<svg xmlns="http://www.w3.org/2000/svg" viewBox="0 0 24 24"><path d="M17.499 24a5.462 5.462 0 0 1-3.889-1.611 36.337 36.337 0 0 1-1.611-1.717 36.337 36.337 0 0 1-1.611 1.717C9.35 23.428 7.968 24 6.499 24s-2.851-.572-3.889-1.611c-2.258-2.257-1.86-4.667-.568-7.591C2.61 13.305 7.796 0 11.999 0s9.39 13.305 9.967 14.822c1.282 2.899 1.68 5.31-.578 7.567A5.462 5.462 0 0 1 17.499 24zm-4.846-4.097a35.123 35.123 0 0 0 1.665 1.779c.85.85 1.979 1.318 3.182 1.318s2.332-.468 3.182-1.318c1.651-1.651 1.745-3.346.361-6.48C18.945 9.696 14.647 1 11.999 1S5.054 9.696 2.966 15.178c-1.394 3.158-1.3 4.854.352 6.504.849.85 1.979 1.318 3.181 1.318s2.332-.468 3.182-1.318a35.553 35.553 0 0 0 1.665-1.779C9.639 17.825 7.999 15.245 7.999 13c0-2.949 2.066-4 4-4s4 1.051 4 4c0 2.245-1.639 4.825-3.346 6.903zM11.999 10c-.902 0-3 .292-3 3 0 1.586 1.067 3.738 3 6.125 1.933-2.386 3-4.538 3-6.125 0-2.708-2.097-3-3-3z"/></svg>